<?xml version="1.0" standalone="no"?>
<!DOCTYPE svg PUBLIC "-//W3C//DTD SVG 20010904//EN"
 "http://www.w3.org/TR/2001/REC-SVG-20010904/DTD/svg10.dtd">
<svg version="1.0" xmlns="http://www.w3.org/2000/svg"
 width="260.000000pt" height="260.000000pt" viewBox="0 0 260.000000 260.000000"
 preserveAspectRatio="xMidYMid meet">
<metadata>
Created by potrace 1.11, written by Peter Selinger 2001-2013
</metadata>
<g transform="translate(0.000000,260.000000) scale(0.100000,-0.100000)"
fill="#000000" stroke="none">
<path d="M969 2400 c-252 -30 -462 -216 -529 -468 -16 -60 -19 -118 -19 -533
-1 -433 0 -467 16 -481 25 -21 41 -17 132 36 49 29 90 46 111 46 23 0 68 -22
155 -75 161 -99 165 -99 286 1 111 93 131 104 190 104 40 0 65 -12 208 -98 90
-53 179 -106 199 -118 21 -12 86 -51 147 -88 146 -89 192 -100 251 -61 49 32
77 213 55 355 -32 201 -165 388 -345 484 -38 20 -104 47 -126 51 -26 5 -50 19
-50 28 1 7 7 37 14 68 18 74 13 218 -8 294 -49 168 -174 318 -326 392 -126 61
-227 79 -361 63z"/>
<path d="M1305 865 c-27 -26 -27 -29 -25 -120 3 -129 18 -168 80 -209 59 -39
62 -53 32 -190 l-26 -118 21 -18 c18 -14 39 -17 120 -15 54 2 127 10 163 19
62 16 188 69 200 84 3 4 24 20 47 36 59 39 76 70 70 118 -6 46 10 32 -227 187
-285 186 -392 251 -412 251 -10 0 -30 -11 -43 -25z"/>
<path d="M663 858 c-5 -7 -26 -46 -47 -87 -40 -79 -42 -115 -6 -126 28 -9 25
-22 -16 -91 -72 -117 -69 -110 -55 -128 18 -22 12 -26 226 152 107 89 145 127
145 143 0 13 -31 39 -100 84 -100 65 -129 76 -147 53z"/>
</g>
</svg>
