<svg xmlns="http://www.w3.org/2000/svg" viewBox="0 0 18.95 23.79"><defs><style>.cls-1{fill:#272831;}</style></defs><g id="Layer_2" data-name="Layer 2"><g id="Layer_1-2" data-name="Layer 1"><path class="cls-1" d="M19,16.09a7.17,7.17,0,0,1-.31,2.08c-.48,1.33-1.92.59-2.07.5h0l-6-3.65a1.86,1.86,0,0,0-2.13.17L6.87,16.47a1.14,1.14,0,0,1-1.36.1h0l-2.1-1.31a1.13,1.13,0,0,0-1.19,0l-1.46.85h0S0,16.42,0,15.52V6.77a6.77,6.77,0,0,1,13.54,0A6.61,6.61,0,0,1,13.16,9,7.24,7.24,0,0,1,19,16.09"/><path class="cls-1" d="M16.5,20.38a1,1,0,0,1,.13,1.49A7.21,7.21,0,0,1,12,23.79H10.76a.5.5,0,0,1-.49-.61c.13-.64.32-1.51.45-2.1a.8.8,0,0,0-.48-.91A1.46,1.46,0,0,1,9.36,19a14.14,14.14,0,0,1-.1-1.9.78.78,0,0,1,.74-.76.71.71,0,0,1,.46.13s4.15,2.65,6,3.89"/><path class="cls-1" d="M1.22,21s.76-1.1,1-1.6a.32.32,0,0,0-.2-.46H2a.4.4,0,0,1-.27-.56l.82-1.63a.38.38,0,0,1,.56-.15l2,1.26a.4.4,0,0,1,0,.62L1.72,21.3c-.3.25-.62,0-.5-.33"/></g></g></svg>